<svg width="95" height="44" viewBox="0 0 95 44" fill="none" xmlns="http://www.w3.org/2000/svg">
<path d="M24.944 14.423C23.4413 16.1136 22.6112 18.2969 22.6112 20.5588C22.6112 22.8208 23.4413 25.0041 24.944 26.6947M20.0409 9.51998C17.2411 12.5142 15.6836 16.4604 15.6836 20.5596C15.6836 24.6589 17.2411 28.6051 20.0409 31.5993M14.6255 5.16226C10.845 9.40009 8.75574 14.8806 8.75574 20.5596C8.75574 26.2387 10.845 31.7192 14.6255 35.957" stroke="white" stroke-width="2.56998" stroke-linecap="round" stroke-linejoin="round"/>
<path d="M81.2406 0.00777211L81.2004 0.00906747C77.3459 0.204566 74.2807 3.39225 74.2807 7.29542V8.62186C74.2807 11.9611 76.5246 14.7751 79.5864 15.6414V27.885C75.8681 28.2202 72.9542 31.3451 72.9542 35.1507V36.4771C72.9542 40.3803 76.0194 43.568 79.874 43.7635L80.2497 43.7725H56.3737L56.7494 43.7635C60.604 43.568 63.6691 40.3803 63.6691 36.4771V35.1507C63.6691 31.3451 60.7553 28.2202 57.0369 27.885V15.6414C60.0988 14.7751 62.3427 11.9611 62.3427 8.62186V7.29542C62.3427 3.39225 59.2775 0.204566 55.4229 0.00906747L55.0473 0H80.9129C81.0225 0 81.1316 0.00512944 81.2406 0.00777211ZM56.3737 29.1817C59.6703 29.1817 62.3427 31.8541 62.3427 35.1507V36.4771C62.3427 39.7737 59.6703 42.4461 56.3737 42.4461H48.599C44.1722 40.2969 41.1197 35.7596 41.1197 30.5081V29.1817H56.3737ZM94.1773 29.1817V30.5081C94.1773 35.7596 91.1248 40.2969 86.6979 42.4461H80.2497C76.9531 42.4461 74.2807 39.7737 74.2807 36.4771V35.1507C74.2807 31.8541 76.9531 29.1817 80.2497 29.1817H94.1773ZM55.7105 15.9173V27.8553H41.1197V15.9173H55.7105ZM94.1773 15.9173V27.8553H80.9129V15.9173H94.1773ZM55.0473 1.32644C58.3439 1.32644 61.0163 3.99885 61.0163 7.29542V8.62186C61.0163 11.9184 58.3439 14.5908 55.0473 14.5908H41.1197V13.2644C41.1197 8.0129 44.1722 3.47564 48.599 1.32644H55.0473ZM86.6979 1.32644C91.1248 3.47564 94.1773 8.0129 94.1773 13.2644V14.5908H81.5761C78.2795 14.5908 75.6071 11.9184 75.6071 8.62186V7.29542C75.6071 3.99885 78.2795 1.32644 81.5761 1.32644H86.6979Z" fill="white"/>
</svg>
