<svg width="614" height="141" viewBox="0 0 614 141" fill="none" xmlns="http://www.w3.org/2000/svg">
<g clip-path="url(#clip0_7_30)">
<path d="M115.457 45.1646L57.0678 103.4C53.4079 106.636 49.7539 109.86 45.8491 112.812C45.7149 113.4 46.0824 113.212 46.4323 113.371C66.6097 122.513 92.3047 112.78 102.981 94.0291C106.454 87.9286 106.761 84.2318 108.598 77.8878C110.686 70.6798 121.703 71.4133 122.709 78.6504C123.412 83.7041 118.872 94.9047 116.378 99.5322C99.8607 130.177 60.9114 140.064 31.1396 121.954C28.0775 123.348 25.0709 124.85 21.9534 126.126C18.7135 127.451 12.1111 130.348 8.93242 130.846C2.8404 131.803 -1.61852 126.978 0.559904 121.069C3.27492 113.705 7.41014 109.083 7.99631 100.364C8.4075 94.2523 6.13283 91.8081 4.57265 86.3658C-5.73042 50.4561 20.7198 12.4732 58.2285 10.1131C61.5792 9.90142 69.8409 9.89272 72.8534 10.9162C78.75 12.9168 79.3158 20.9889 73.8974 23.9609C70.7275 25.6976 68.9865 24.4625 65.7961 24.3088C36.9779 22.9374 14.8261 45.7068 16.71 74.2896C17.3253 83.6055 23.0733 91.147 22.5454 100.637C22.3296 104.473 21.1806 108.309 19.635 111.791C29.2528 107.645 37.7682 101.437 45.5604 94.5597L106.428 33.8654H92.885C91.9752 33.8654 89.5576 31.8822 88.9598 31.1051C85.7286 26.9067 88.4932 20.4148 93.7453 19.948C103.381 19.0898 114.284 20.6207 124.054 19.9538C126.845 20.5859 129.306 22.6793 129.726 25.6078C129.093 34.9527 130.563 45.3762 129.738 54.5907C129.143 61.2217 120.245 63.1325 116.667 57.7163C116.369 57.2669 115.454 55.2663 115.454 54.869V45.1646H115.457Z" fill="#A4EA01"/>
</g>
<path d="M169.95 115L169.236 110.359C173.441 109.645 175.979 108.852 176.852 107.979C177.804 107.106 178.28 105.44 178.28 102.981V44.552C178.28 42.0927 177.804 40.4267 176.852 39.554C175.979 38.6813 173.441 37.888 169.236 37.174L169.95 32.533H207.197C214.02 32.533 219.93 33.6437 224.928 35.865C229.926 38.007 233.813 40.982 236.59 44.79C241.985 52.0887 244.682 60.8947 244.682 71.208C244.682 82.5527 241.667 92.4297 235.638 100.839C232.623 105.123 228.419 108.574 223.024 111.192C217.709 113.731 211.56 115 204.579 115H169.95ZM189.823 103.933C189.823 105.678 190.656 106.71 192.322 107.027C197.875 108.138 202.08 108.693 204.936 108.693C213.742 108.693 220.366 105.559 224.809 99.292C229.252 93.0247 231.473 84.655 231.473 74.183C231.473 67.5983 230.6 61.8863 228.855 57.047C227.189 52.2077 224.928 48.5187 222.072 45.98C216.677 41.22 210.807 38.84 204.46 38.84H189.823V103.933ZM278.108 116.071C270.095 116.071 263.868 113.334 259.425 107.86C255.062 102.386 252.88 95.484 252.88 87.154C252.88 78.7447 255.419 71.6047 260.496 65.734C265.573 59.8633 272.277 56.928 280.607 56.928C294.094 56.928 301.154 65.2183 301.789 81.799L298.695 84.06L264.185 85.964C264.185 100.641 270.452 107.979 282.987 107.979C288.461 107.979 293.816 106.63 299.052 103.933L301.551 107.86C298.933 110.002 295.522 111.906 291.317 113.572C287.112 115.238 282.709 116.071 278.108 116.071ZM264.542 80.49L289.175 78.348C289.968 78.2687 290.365 77.515 290.365 76.087C290.365 72.5963 289.413 69.5817 287.509 67.043C285.684 64.5043 282.551 63.235 278.108 63.235C273.665 63.235 270.413 64.7423 268.35 67.757C266.367 70.6923 265.097 74.9367 264.542 80.49ZM315.538 110.954V34.437C315.538 32.771 314.903 31.581 313.634 30.867C312.365 30.0737 309.985 29.32 306.494 28.606L307.208 24.798C315.697 23.6873 321.607 23.132 324.939 23.132L326.248 24.322V57.761C326.248 62.1243 325.97 65.2183 325.415 67.043L326.367 67.4L327.557 65.853C332.158 59.903 337.672 56.928 344.098 56.928C350.524 56.928 355.8 59.5063 359.925 64.663C364.05 69.7403 366.113 76.7613 366.113 85.726C366.113 94.6907 363.733 101.989 358.973 107.622C354.292 113.255 347.509 116.071 338.624 116.071C334.419 116.071 330.135 115.516 325.772 114.405C321.409 113.294 317.997 112.144 315.538 110.954ZM326.248 105.004C329.659 107.86 333.943 109.288 339.1 109.288C344.336 109.288 347.866 108.217 349.691 106.075C351.119 104.488 352.269 101.989 353.142 98.578C354.094 95.0873 354.57 91.2397 354.57 87.035C354.57 79.9743 353.301 74.6193 350.762 70.97C348.223 67.3207 345.09 65.496 341.361 65.496C337.632 65.496 333.666 66.8843 329.461 69.661C328.112 70.5337 327.24 71.327 326.843 72.041C326.446 72.755 326.248 73.7467 326.248 75.016V105.004ZM380.506 98.697V65.972H372.771L372.295 60.855L378.126 59.427C379.633 59.0303 380.625 58.1577 381.101 56.809C381.656 55.381 382.608 50.9383 383.957 43.481L391.216 42.767V58.713H407.757L406.805 64.306L391.216 66.091V95.127C391.216 103.378 393.754 107.503 398.832 107.503C401.688 107.503 404.702 106.313 407.876 103.933L410.375 107.384C406.091 113.175 400.855 116.071 394.667 116.071C390.224 116.071 386.733 114.524 384.195 111.43C381.735 108.336 380.506 104.092 380.506 98.697ZM417.944 115L417.23 110.359C421.435 109.645 423.973 108.852 424.846 107.979C425.798 107.106 426.274 105.44 426.274 102.981V44.552C426.274 42.0927 425.798 40.4267 424.846 39.554C423.973 38.6813 421.435 37.888 417.23 37.174L417.944 32.533H447.099L447.575 37.174L440.197 38.602C438.61 38.9193 437.817 39.9507 437.817 41.696V108.931L448.408 108.812C457.214 108.653 462.371 108.376 463.878 107.979C465.147 107.582 467.369 101.474 470.542 89.653L477.087 90.248C477.166 91.5967 477.206 94.3733 477.206 98.578C477.206 102.703 476.77 108.177 475.897 115H417.944ZM483.944 115L483.23 110.359C487.117 109.566 489.457 108.772 490.251 107.979C491.123 107.106 491.56 105.639 491.56 103.576V69.423C491.56 67.757 490.925 66.567 489.656 65.853C488.386 65.0597 486.006 64.306 482.516 63.592L483.23 59.784C491.718 58.6733 497.629 58.118 500.961 58.118L502.27 59.308V106.432C502.27 107.384 502.468 108.019 502.865 108.336C503.341 108.574 503.936 108.772 504.65 108.931L510.481 110.359L510.005 115H483.944ZM502.389 36.936C502.389 38.9193 501.754 40.5853 500.485 41.934C499.295 43.2827 497.668 43.957 495.606 43.957C493.622 43.957 491.956 43.362 490.608 42.172C489.338 40.982 488.704 39.3557 488.704 37.293C488.704 35.151 489.299 33.4453 490.489 32.176C491.758 30.9067 493.464 30.272 495.606 30.272C500.128 30.272 502.389 32.4933 502.389 36.936ZM525.304 98.697V65.972H517.569L517.093 60.855L522.924 59.427C524.432 59.0303 525.423 58.1577 525.899 56.809C526.455 55.381 527.407 50.9383 528.755 43.481L536.014 42.767V58.713H552.555L551.603 64.306L536.014 66.091V95.127C536.014 103.378 538.553 107.503 543.63 107.503C546.486 107.503 549.501 106.313 552.674 103.933L555.173 107.384C550.889 113.175 545.653 116.071 539.465 116.071C535.023 116.071 531.532 114.524 528.993 111.43C526.534 108.336 525.304 104.092 525.304 98.697ZM586.067 116.071C578.054 116.071 571.827 113.334 567.384 107.86C563.021 102.386 560.839 95.484 560.839 87.154C560.839 78.7447 563.378 71.6047 568.455 65.734C573.532 59.8633 580.236 56.928 588.566 56.928C602.053 56.928 609.113 65.2183 609.748 81.799L606.654 84.06L572.144 85.964C572.144 100.641 578.411 107.979 590.946 107.979C596.42 107.979 601.775 106.63 607.011 103.933L609.51 107.86C606.892 110.002 603.481 111.906 599.276 113.572C595.071 115.238 590.668 116.071 586.067 116.071ZM572.501 80.49L597.134 78.348C597.927 78.2687 598.324 77.515 598.324 76.087C598.324 72.5963 597.372 69.5817 595.468 67.043C593.643 64.5043 590.51 63.235 586.067 63.235C581.624 63.235 578.372 64.7423 576.309 67.757C574.326 70.6923 573.056 74.9367 572.501 80.49Z" fill="#A4EA01"/>
<defs>
<clipPath id="clip0_7_30">
<rect width="130" height="121" fill="white" transform="translate(0 10)"/>
</clipPath>
</defs>
</svg>
